<mxfile host="app.diagrams.net" modified="2023-04-30T14:59:24.903Z" agent="Mozilla/5.0 (Windows NT 10.0; Win64; x64) AppleWebKit/537.36 (KHTML, like Gecko) Chrome/112.0.0.0 Safari/537.36" etag="YMYTQt1XG2dwvkAnpQID" version="21.2.3" type="github">
  <diagram name="Page-1" id="9f46799a-70d6-7492-0946-bef42562c5a5">
    <mxGraphModel dx="819" dy="450" grid="1" gridSize="10" guides="1" tooltips="1" connect="1" arrows="1" fold="1" page="1" pageScale="1" pageWidth="1400" pageHeight="850" background="none" math="0" shadow="0">
      <root>
        <mxCell id="0" />
        <mxCell id="1" parent="0" />
        <mxCell id="ooByGatoX0G_194qhCBF-90" style="edgeStyle=orthogonalEdgeStyle;rounded=0;orthogonalLoop=1;jettySize=auto;html=1;fillColor=#d5e8d4;strokeColor=#82b366;" edge="1" parent="1" source="ooByGatoX0G_194qhCBF-1" target="ooByGatoX0G_194qhCBF-83">
          <mxGeometry relative="1" as="geometry">
            <Array as="points">
              <mxPoint x="40" y="590" />
              <mxPoint x="480" y="590" />
              <mxPoint x="480" y="539" />
            </Array>
          </mxGeometry>
        </mxCell>
        <mxCell id="ooByGatoX0G_194qhCBF-92" style="edgeStyle=orthogonalEdgeStyle;rounded=0;orthogonalLoop=1;jettySize=auto;html=1;fillColor=#d5e8d4;strokeColor=#82b366;" edge="1" parent="1" source="ooByGatoX0G_194qhCBF-1" target="ooByGatoX0G_194qhCBF-91">
          <mxGeometry relative="1" as="geometry">
            <Array as="points">
              <mxPoint x="40" y="590" />
              <mxPoint x="480" y="590" />
              <mxPoint x="480" y="569" />
            </Array>
          </mxGeometry>
        </mxCell>
        <mxCell id="ooByGatoX0G_194qhCBF-1" value="Buyer" style="triangle;whiteSpace=wrap;html=1;fillColor=#d5e8d4;strokeColor=#82b366;" vertex="1" parent="1">
          <mxGeometry x="10" y="425" width="60" height="80" as="geometry" />
        </mxCell>
        <mxCell id="ooByGatoX0G_194qhCBF-96" style="edgeStyle=orthogonalEdgeStyle;rounded=0;orthogonalLoop=1;jettySize=auto;html=1;fillColor=#dae8fc;strokeColor=#6c8ebf;" edge="1" parent="1" source="ooByGatoX0G_194qhCBF-2" target="ooByGatoX0G_194qhCBF-84">
          <mxGeometry relative="1" as="geometry">
            <mxPoint x="1360" y="670" as="targetPoint" />
            <Array as="points">
              <mxPoint x="1360" y="640" />
              <mxPoint x="690" y="640" />
              <mxPoint x="690" y="599" />
            </Array>
          </mxGeometry>
        </mxCell>
        <mxCell id="ooByGatoX0G_194qhCBF-107" style="edgeStyle=orthogonalEdgeStyle;rounded=0;orthogonalLoop=1;jettySize=auto;html=1;entryX=0.456;entryY=0.011;entryDx=0;entryDy=0;entryPerimeter=0;fillColor=#dae8fc;strokeColor=#6c8ebf;" edge="1" parent="1" source="ooByGatoX0G_194qhCBF-2" target="ooByGatoX0G_194qhCBF-63">
          <mxGeometry relative="1" as="geometry">
            <Array as="points">
              <mxPoint x="1330" y="350" />
              <mxPoint x="878" y="350" />
            </Array>
          </mxGeometry>
        </mxCell>
        <mxCell id="ooByGatoX0G_194qhCBF-2" value="salesman" style="triangle;whiteSpace=wrap;html=1;direction=west;fillColor=#dae8fc;strokeColor=#6c8ebf;" vertex="1" parent="1">
          <mxGeometry x="1330" y="425" width="60" height="80" as="geometry" />
        </mxCell>
        <mxCell id="ooByGatoX0G_194qhCBF-18" value="Buyer" style="swimlane;fontStyle=0;childLayout=stackLayout;horizontal=1;startSize=26;horizontalStack=0;resizeParent=1;resizeParentMax=0;resizeLast=0;collapsible=1;marginBottom=0;align=center;fontSize=14;fillColor=#d5e8d4;strokeColor=#82b366;" vertex="1" parent="1">
          <mxGeometry x="210" y="345" width="160" height="240" as="geometry">
            <mxRectangle x="160" y="350" width="60" height="30" as="alternateBounds" />
          </mxGeometry>
        </mxCell>
        <mxCell id="ooByGatoX0G_194qhCBF-19" value="First name" style="text;strokeColor=none;fillColor=none;spacingLeft=4;spacingRight=4;overflow=hidden;rotatable=0;points=[[0,0.5],[1,0.5]];portConstraint=eastwest;fontSize=12;whiteSpace=wrap;html=1;" vertex="1" parent="ooByGatoX0G_194qhCBF-18">
          <mxGeometry y="26" width="160" height="30" as="geometry" />
        </mxCell>
        <mxCell id="ooByGatoX0G_194qhCBF-20" value="Last name" style="text;strokeColor=none;fillColor=none;spacingLeft=4;spacingRight=4;overflow=hidden;rotatable=0;points=[[0,0.5],[1,0.5]];portConstraint=eastwest;fontSize=12;whiteSpace=wrap;html=1;" vertex="1" parent="ooByGatoX0G_194qhCBF-18">
          <mxGeometry y="56" width="160" height="30" as="geometry" />
        </mxCell>
        <mxCell id="ooByGatoX0G_194qhCBF-21" value="Surname" style="text;strokeColor=none;fillColor=none;spacingLeft=4;spacingRight=4;overflow=hidden;rotatable=0;points=[[0,0.5],[1,0.5]];portConstraint=eastwest;fontSize=12;whiteSpace=wrap;html=1;" vertex="1" parent="ooByGatoX0G_194qhCBF-18">
          <mxGeometry y="86" width="160" height="34" as="geometry" />
        </mxCell>
        <mxCell id="ooByGatoX0G_194qhCBF-23" value="Email" style="text;strokeColor=none;fillColor=none;spacingLeft=4;spacingRight=4;overflow=hidden;rotatable=0;points=[[0,0.5],[1,0.5]];portConstraint=eastwest;fontSize=12;whiteSpace=wrap;html=1;" vertex="1" parent="ooByGatoX0G_194qhCBF-18">
          <mxGeometry y="120" width="160" height="30" as="geometry" />
        </mxCell>
        <mxCell id="ooByGatoX0G_194qhCBF-26" value="Tel." style="text;strokeColor=none;fillColor=none;spacingLeft=4;spacingRight=4;overflow=hidden;rotatable=0;points=[[0,0.5],[1,0.5]];portConstraint=eastwest;fontSize=12;whiteSpace=wrap;html=1;" vertex="1" parent="ooByGatoX0G_194qhCBF-18">
          <mxGeometry y="150" width="160" height="30" as="geometry" />
        </mxCell>
        <mxCell id="ooByGatoX0G_194qhCBF-24" value="Address" style="text;strokeColor=none;fillColor=none;spacingLeft=4;spacingRight=4;overflow=hidden;rotatable=0;points=[[0,0.5],[1,0.5]];portConstraint=eastwest;fontSize=12;whiteSpace=wrap;html=1;" vertex="1" parent="ooByGatoX0G_194qhCBF-18">
          <mxGeometry y="180" width="160" height="30" as="geometry" />
        </mxCell>
        <mxCell id="ooByGatoX0G_194qhCBF-49" value="&lt;span style=&quot;background-color: rgb(128, 255, 0);&quot;&gt;&lt;font color=&quot;#006633&quot;&gt;Key&lt;/font&gt;&lt;/span&gt;" style="text;strokeColor=none;fillColor=none;spacingLeft=4;spacingRight=4;overflow=hidden;rotatable=0;points=[[0,0.5],[1,0.5]];portConstraint=eastwest;fontSize=12;whiteSpace=wrap;html=1;" vertex="1" parent="ooByGatoX0G_194qhCBF-18">
          <mxGeometry y="210" width="160" height="30" as="geometry" />
        </mxCell>
        <mxCell id="ooByGatoX0G_194qhCBF-35" value="&lt;font style=&quot;font-size: 7px;&quot;&gt;consent to the processing and transfer of personal data&lt;/font&gt;" style="strokeWidth=2;html=1;shape=mxgraph.flowchart.decision;whiteSpace=wrap;fillColor=#000000;fontColor=#FFFFFF;" vertex="1" parent="1">
          <mxGeometry x="90" y="412.5" width="110" height="105" as="geometry" />
        </mxCell>
        <mxCell id="ooByGatoX0G_194qhCBF-36" value="" style="endArrow=classic;html=1;rounded=0;exitX=1;exitY=0.5;exitDx=0;exitDy=0;entryX=0;entryY=0.5;entryDx=0;entryDy=0;entryPerimeter=0;" edge="1" parent="1" source="ooByGatoX0G_194qhCBF-1" target="ooByGatoX0G_194qhCBF-35">
          <mxGeometry width="50" height="50" relative="1" as="geometry">
            <mxPoint x="370" y="410" as="sourcePoint" />
            <mxPoint x="420" y="360" as="targetPoint" />
          </mxGeometry>
        </mxCell>
        <mxCell id="ooByGatoX0G_194qhCBF-41" value="" style="endArrow=classic;html=1;rounded=0;exitX=1;exitY=0.5;exitDx=0;exitDy=0;exitPerimeter=0;entryX=0;entryY=0;entryDx=0;entryDy=0;" edge="1" parent="1" source="ooByGatoX0G_194qhCBF-35" target="ooByGatoX0G_194qhCBF-18">
          <mxGeometry width="50" height="50" relative="1" as="geometry">
            <mxPoint x="270" y="480" as="sourcePoint" />
            <mxPoint x="320" y="430" as="targetPoint" />
          </mxGeometry>
        </mxCell>
        <mxCell id="ooByGatoX0G_194qhCBF-50" value="&lt;font style=&quot;font-size: 7px;&quot;&gt;consent to the processing and transfer of personal data&lt;/font&gt;" style="strokeWidth=2;html=1;shape=mxgraph.flowchart.decision;whiteSpace=wrap;fillColor=#000000;fontColor=#FFFFFF;" vertex="1" parent="1">
          <mxGeometry x="1200" y="412.5" width="110" height="105" as="geometry" />
        </mxCell>
        <mxCell id="ooByGatoX0G_194qhCBF-51" value="" style="endArrow=classic;html=1;rounded=0;exitX=1;exitY=0.5;exitDx=0;exitDy=0;entryX=1;entryY=0.5;entryDx=0;entryDy=0;entryPerimeter=0;" edge="1" parent="1" source="ooByGatoX0G_194qhCBF-2" target="ooByGatoX0G_194qhCBF-50">
          <mxGeometry width="50" height="50" relative="1" as="geometry">
            <mxPoint x="1220" y="520" as="sourcePoint" />
            <mxPoint x="1270" y="470" as="targetPoint" />
          </mxGeometry>
        </mxCell>
        <mxCell id="ooByGatoX0G_194qhCBF-53" value="Salesman" style="swimlane;fontStyle=0;childLayout=stackLayout;horizontal=1;startSize=26;horizontalStack=0;resizeParent=1;resizeParentMax=0;resizeLast=0;collapsible=1;marginBottom=0;align=center;fontSize=14;fillColor=#dae8fc;strokeColor=#6c8ebf;" vertex="1" parent="1">
          <mxGeometry x="1030" y="376" width="160" height="240" as="geometry">
            <mxRectangle x="160" y="350" width="60" height="30" as="alternateBounds" />
          </mxGeometry>
        </mxCell>
        <mxCell id="ooByGatoX0G_194qhCBF-54" value="First name" style="text;strokeColor=none;fillColor=none;spacingLeft=4;spacingRight=4;overflow=hidden;rotatable=0;points=[[0,0.5],[1,0.5]];portConstraint=eastwest;fontSize=12;whiteSpace=wrap;html=1;" vertex="1" parent="ooByGatoX0G_194qhCBF-53">
          <mxGeometry y="26" width="160" height="30" as="geometry" />
        </mxCell>
        <mxCell id="ooByGatoX0G_194qhCBF-55" value="Last name" style="text;strokeColor=none;fillColor=none;spacingLeft=4;spacingRight=4;overflow=hidden;rotatable=0;points=[[0,0.5],[1,0.5]];portConstraint=eastwest;fontSize=12;whiteSpace=wrap;html=1;" vertex="1" parent="ooByGatoX0G_194qhCBF-53">
          <mxGeometry y="56" width="160" height="30" as="geometry" />
        </mxCell>
        <mxCell id="ooByGatoX0G_194qhCBF-56" value="Surname" style="text;strokeColor=none;fillColor=none;spacingLeft=4;spacingRight=4;overflow=hidden;rotatable=0;points=[[0,0.5],[1,0.5]];portConstraint=eastwest;fontSize=12;whiteSpace=wrap;html=1;" vertex="1" parent="ooByGatoX0G_194qhCBF-53">
          <mxGeometry y="86" width="160" height="34" as="geometry" />
        </mxCell>
        <mxCell id="ooByGatoX0G_194qhCBF-57" value="Email" style="text;strokeColor=none;fillColor=none;spacingLeft=4;spacingRight=4;overflow=hidden;rotatable=0;points=[[0,0.5],[1,0.5]];portConstraint=eastwest;fontSize=12;whiteSpace=wrap;html=1;" vertex="1" parent="ooByGatoX0G_194qhCBF-53">
          <mxGeometry y="120" width="160" height="30" as="geometry" />
        </mxCell>
        <mxCell id="ooByGatoX0G_194qhCBF-58" value="Tel." style="text;strokeColor=none;fillColor=none;spacingLeft=4;spacingRight=4;overflow=hidden;rotatable=0;points=[[0,0.5],[1,0.5]];portConstraint=eastwest;fontSize=12;whiteSpace=wrap;html=1;" vertex="1" parent="ooByGatoX0G_194qhCBF-53">
          <mxGeometry y="150" width="160" height="30" as="geometry" />
        </mxCell>
        <mxCell id="ooByGatoX0G_194qhCBF-59" value="Address" style="text;strokeColor=none;fillColor=none;spacingLeft=4;spacingRight=4;overflow=hidden;rotatable=0;points=[[0,0.5],[1,0.5]];portConstraint=eastwest;fontSize=12;whiteSpace=wrap;html=1;" vertex="1" parent="ooByGatoX0G_194qhCBF-53">
          <mxGeometry y="180" width="160" height="30" as="geometry" />
        </mxCell>
        <mxCell id="ooByGatoX0G_194qhCBF-60" value="&lt;font color=&quot;#67ab9f&quot;&gt;Key&lt;/font&gt;" style="text;strokeColor=none;fillColor=none;spacingLeft=4;spacingRight=4;overflow=hidden;rotatable=0;points=[[0,0.5],[1,0.5]];portConstraint=eastwest;fontSize=12;whiteSpace=wrap;html=1;" vertex="1" parent="ooByGatoX0G_194qhCBF-53">
          <mxGeometry y="210" width="160" height="30" as="geometry" />
        </mxCell>
        <mxCell id="ooByGatoX0G_194qhCBF-61" value="" style="endArrow=classic;html=1;rounded=0;exitX=0;exitY=0.5;exitDx=0;exitDy=0;exitPerimeter=0;entryX=1;entryY=0;entryDx=0;entryDy=0;fillColor=#dae8fc;strokeColor=#6c8ebf;" edge="1" parent="1" source="ooByGatoX0G_194qhCBF-50" target="ooByGatoX0G_194qhCBF-53">
          <mxGeometry width="50" height="50" relative="1" as="geometry">
            <mxPoint x="1030" y="470" as="sourcePoint" />
            <mxPoint x="1080" y="420" as="targetPoint" />
          </mxGeometry>
        </mxCell>
        <mxCell id="ooByGatoX0G_194qhCBF-63" value="Salesman data (open data)" style="swimlane;fontStyle=0;childLayout=stackLayout;horizontal=1;startSize=26;horizontalStack=0;resizeParent=1;resizeParentMax=0;resizeLast=0;collapsible=1;marginBottom=0;align=center;fontSize=12;fillColor=#dae8fc;strokeColor=#6c8ebf;" vertex="1" parent="1">
          <mxGeometry x="800" y="440" width="170" height="176" as="geometry">
            <mxRectangle x="800" y="440" width="60" height="30" as="alternateBounds" />
          </mxGeometry>
        </mxCell>
        <mxCell id="ooByGatoX0G_194qhCBF-70" value="&lt;font color=&quot;#67ab9f&quot;&gt;Key&lt;/font&gt;" style="text;strokeColor=none;fillColor=none;spacingLeft=4;spacingRight=4;overflow=hidden;rotatable=0;points=[[0,0.5],[1,0.5]];portConstraint=eastwest;fontSize=12;whiteSpace=wrap;html=1;" vertex="1" parent="ooByGatoX0G_194qhCBF-63">
          <mxGeometry y="26" width="170" height="30" as="geometry" />
        </mxCell>
        <mxCell id="ooByGatoX0G_194qhCBF-69" value="Country" style="text;strokeColor=none;fillColor=none;spacingLeft=4;spacingRight=4;overflow=hidden;rotatable=0;points=[[0,0.5],[1,0.5]];portConstraint=eastwest;fontSize=12;whiteSpace=wrap;html=1;" vertex="1" parent="ooByGatoX0G_194qhCBF-63">
          <mxGeometry y="56" width="170" height="30" as="geometry" />
        </mxCell>
        <mxCell id="ooByGatoX0G_194qhCBF-86" value="City" style="text;strokeColor=none;fillColor=none;spacingLeft=4;spacingRight=4;overflow=hidden;rotatable=0;points=[[0,0.5],[1,0.5]];portConstraint=eastwest;fontSize=12;whiteSpace=wrap;html=1;" vertex="1" parent="ooByGatoX0G_194qhCBF-63">
          <mxGeometry y="86" width="170" height="30" as="geometry" />
        </mxCell>
        <mxCell id="ooByGatoX0G_194qhCBF-64" value="Shop" style="text;strokeColor=none;fillColor=none;spacingLeft=4;spacingRight=4;overflow=hidden;rotatable=0;points=[[0,0.5],[1,0.5]];portConstraint=eastwest;fontSize=12;whiteSpace=wrap;html=1;" vertex="1" parent="ooByGatoX0G_194qhCBF-63">
          <mxGeometry y="116" width="170" height="30" as="geometry" />
        </mxCell>
        <mxCell id="ooByGatoX0G_194qhCBF-65" value="Shop...n" style="text;strokeColor=none;fillColor=none;spacingLeft=4;spacingRight=4;overflow=hidden;rotatable=0;points=[[0,0.5],[1,0.5]];portConstraint=eastwest;fontSize=12;whiteSpace=wrap;html=1;" vertex="1" parent="ooByGatoX0G_194qhCBF-63">
          <mxGeometry y="146" width="170" height="30" as="geometry" />
        </mxCell>
        <mxCell id="ooByGatoX0G_194qhCBF-78" value="Traide" style="swimlane;fontStyle=0;childLayout=stackLayout;horizontal=1;startSize=26;horizontalStack=0;resizeParent=1;resizeParentMax=0;resizeLast=0;collapsible=1;marginBottom=0;align=center;fontSize=14;fillColor=#fff2cc;strokeColor=#d6b656;" vertex="1" parent="1">
          <mxGeometry x="520" y="438" width="160" height="244" as="geometry">
            <mxRectangle x="160" y="350" width="60" height="30" as="alternateBounds" />
          </mxGeometry>
        </mxCell>
        <mxCell id="ooByGatoX0G_194qhCBF-79" value="Key buyer" style="text;strokeColor=none;fillColor=none;spacingLeft=4;spacingRight=4;overflow=hidden;rotatable=0;points=[[0,0.5],[1,0.5]];portConstraint=eastwest;fontSize=12;whiteSpace=wrap;html=1;" vertex="1" parent="ooByGatoX0G_194qhCBF-78">
          <mxGeometry y="26" width="160" height="30" as="geometry" />
        </mxCell>
        <mxCell id="ooByGatoX0G_194qhCBF-80" value="Key salesman" style="text;strokeColor=none;fillColor=none;spacingLeft=4;spacingRight=4;overflow=hidden;rotatable=0;points=[[0,0.5],[1,0.5]];portConstraint=eastwest;fontSize=12;whiteSpace=wrap;html=1;" vertex="1" parent="ooByGatoX0G_194qhCBF-78">
          <mxGeometry y="56" width="160" height="30" as="geometry" />
        </mxCell>
        <mxCell id="ooByGatoX0G_194qhCBF-83" value="Delivery address" style="text;strokeColor=none;fillColor=none;spacingLeft=4;spacingRight=4;overflow=hidden;rotatable=0;points=[[0,0.5],[1,0.5]];portConstraint=eastwest;fontSize=12;whiteSpace=wrap;html=1;" vertex="1" parent="ooByGatoX0G_194qhCBF-78">
          <mxGeometry y="86" width="160" height="30" as="geometry" />
        </mxCell>
        <mxCell id="ooByGatoX0G_194qhCBF-91" value="Product (url)" style="text;strokeColor=none;fillColor=none;spacingLeft=4;spacingRight=4;overflow=hidden;rotatable=0;points=[[0,0.5],[1,0.5]];portConstraint=eastwest;fontSize=12;whiteSpace=wrap;html=1;" vertex="1" parent="ooByGatoX0G_194qhCBF-78">
          <mxGeometry y="116" width="160" height="30" as="geometry" />
        </mxCell>
        <mxCell id="ooByGatoX0G_194qhCBF-84" value="Sum" style="text;strokeColor=none;fillColor=none;spacingLeft=4;spacingRight=4;overflow=hidden;rotatable=0;points=[[0,0.5],[1,0.5]];portConstraint=eastwest;fontSize=12;whiteSpace=wrap;html=1;" vertex="1" parent="ooByGatoX0G_194qhCBF-78">
          <mxGeometry y="146" width="160" height="30" as="geometry" />
        </mxCell>
        <mxCell id="ooByGatoX0G_194qhCBF-102" value="ID trade" style="text;strokeColor=none;fillColor=none;spacingLeft=4;spacingRight=4;overflow=hidden;rotatable=0;points=[[0,0.5],[1,0.5]];portConstraint=eastwest;fontSize=12;whiteSpace=wrap;html=1;" vertex="1" parent="ooByGatoX0G_194qhCBF-78">
          <mxGeometry y="176" width="160" height="34" as="geometry" />
        </mxCell>
        <mxCell id="ooByGatoX0G_194qhCBF-81" value="transactions" style="text;strokeColor=none;fillColor=none;spacingLeft=4;spacingRight=4;overflow=hidden;rotatable=0;points=[[0,0.5],[1,0.5]];portConstraint=eastwest;fontSize=12;whiteSpace=wrap;html=1;" vertex="1" parent="ooByGatoX0G_194qhCBF-78">
          <mxGeometry y="210" width="160" height="34" as="geometry" />
        </mxCell>
        <mxCell id="ooByGatoX0G_194qhCBF-88" style="edgeStyle=orthogonalEdgeStyle;rounded=0;orthogonalLoop=1;jettySize=auto;html=1;fillColor=#d5e8d4;strokeColor=#66FF66;" edge="1" parent="1" source="ooByGatoX0G_194qhCBF-49" target="ooByGatoX0G_194qhCBF-79">
          <mxGeometry relative="1" as="geometry" />
        </mxCell>
        <mxCell id="ooByGatoX0G_194qhCBF-89" style="edgeStyle=orthogonalEdgeStyle;rounded=0;orthogonalLoop=1;jettySize=auto;html=1;fillColor=#dae8fc;strokeColor=#6c8ebf;" edge="1" parent="1" source="ooByGatoX0G_194qhCBF-70" target="ooByGatoX0G_194qhCBF-80">
          <mxGeometry relative="1" as="geometry" />
        </mxCell>
        <mxCell id="ooByGatoX0G_194qhCBF-93" style="edgeStyle=orthogonalEdgeStyle;rounded=0;orthogonalLoop=1;jettySize=auto;html=1;exitX=1;exitY=0.5;exitDx=0;exitDy=0;fillColor=#dae8fc;strokeColor=#6c8ebf;" edge="1" parent="1" source="ooByGatoX0G_194qhCBF-91" target="ooByGatoX0G_194qhCBF-2">
          <mxGeometry relative="1" as="geometry">
            <Array as="points">
              <mxPoint x="790" y="569" />
              <mxPoint x="790" y="630" />
              <mxPoint x="1360" y="630" />
            </Array>
          </mxGeometry>
        </mxCell>
        <mxCell id="ooByGatoX0G_194qhCBF-104" style="edgeStyle=orthogonalEdgeStyle;rounded=0;orthogonalLoop=1;jettySize=auto;html=1;fillColor=#f8cecc;strokeColor=#b85450;" edge="1" parent="1" source="ooByGatoX0G_194qhCBF-99" target="ooByGatoX0G_194qhCBF-81">
          <mxGeometry relative="1" as="geometry" />
        </mxCell>
        <mxCell id="ooByGatoX0G_194qhCBF-99" value="bank" style="ellipse;shape=cloud;whiteSpace=wrap;html=1;fillColor=#f8cecc;strokeColor=#b85450;" vertex="1" parent="1">
          <mxGeometry x="360" y="170" width="120" height="80" as="geometry" />
        </mxCell>
        <mxCell id="ooByGatoX0G_194qhCBF-100" style="edgeStyle=orthogonalEdgeStyle;rounded=0;orthogonalLoop=1;jettySize=auto;html=1;fillColor=#f8cecc;strokeColor=#b85450;" edge="1" parent="1" source="ooByGatoX0G_194qhCBF-84" target="ooByGatoX0G_194qhCBF-99">
          <mxGeometry relative="1" as="geometry" />
        </mxCell>
        <mxCell id="ooByGatoX0G_194qhCBF-106" style="edgeStyle=orthogonalEdgeStyle;rounded=0;orthogonalLoop=1;jettySize=auto;html=1;strokeColor=#67AB9F;" edge="1" parent="1" source="ooByGatoX0G_194qhCBF-60" target="ooByGatoX0G_194qhCBF-70">
          <mxGeometry relative="1" as="geometry" />
        </mxCell>
      </root>
    </mxGraphModel>
  </diagram>
</mxfile>
